<svg xmlns:mydata="http://www.w3.org/2000/svg" xmlns="http://www.w3.org/2000/svg" xmlns:xlink="http://www.w3.org/1999/xlink" mydata:contrastcolor="000000" mydata:template="Contrast" mydata:presentation="2.5" mydata:layouttype="undefined" mydata:specialfontid="undefined" mydata:id1="087" mydata:id2="015" mydata:companyname="TasteBit Express" mydata:companytagline="From Kitchen to Doorstep, Flavorful and Fast." version="1.1" viewBox="146 106 258 258"><g fill="#1e90ff" fill-rule="none" stroke="none" stroke-width="1" stroke-linecap="butt" stroke-linejoin="miter" stroke-miterlimit="10" stroke-dasharray="" stroke-dashoffset="0" font-family="none" font-weight="none" font-size="none" text-anchor="none" style="mix-blend-mode: normal"><g data-paper-data="{&quot;isGlobalGroup&quot;:true,&quot;bounds&quot;:{&quot;x&quot;:146.00037697032744,&quot;y&quot;:105.99999999999999,&quot;width&quot;:257.99924605934507,&quot;height&quot;:258}}"><g data-paper-data="{&quot;fillRule&quot;:&quot;nonzero&quot;,&quot;fillRuleOriginal&quot;:&quot;evenodd&quot;,&quot;isIcon&quot;:true,&quot;iconStyle&quot;:&quot;standalone&quot;,&quot;selectedEffects&quot;:{&quot;container&quot;:&quot;hexagon_simple_filledplus_sharp_upright&quot;,&quot;transformation&quot;:&quot;&quot;,&quot;pattern&quot;:&quot;&quot;},&quot;bounds&quot;:{&quot;x&quot;:211.90288445118168,&quot;y&quot;:163.3754492960298,&quot;width&quot;:126.19456013876194,&quot;height&quot;:143.24872443761288},&quot;widthRatioIconToContainer&quot;:0.5725327706461517,&quot;heightRatioIconToContainer&quot;:0.7435469416562872,&quot;relativeBoundsIconToContainer&quot;:{&quot;top&quot;:-0.0069951223201120075,&quot;left&quot;:0.026291906249126955},&quot;iconType&quot;:&quot;icon&quot;,&quot;rawIconId&quot;:&quot;818&quot;,&quot;isDetailed&quot;:false,&quot;suitableAsStandaloneIcon&quot;:true}" fill-rule="nonzero"><path d="M219.88352,266.82142v-63.64324l55.11666,-31.82162l55.11666,31.82162v63.64324l-55.11666,31.82162zM254.20776,224.92455c-37.80306,44.55524 25.67899,62.3293 25.68015,62.3293c-5.36083,-16.06584 1.89935,-25.44799 7.56303,-32.7669c1.34366,-1.73638 2.59744,-3.35655 3.57148,-4.92238c29.6763,-48.08937 -20.77605,-68.82289 -20.77605,-68.82289c6.67403,8.00608 3.78238,24.51934 -16.0386,44.18286zM304.33714,221.31916c2.62846,4.88571 -2.76869,25.3457 -10.65409,34.65969c-13.41588,15.887 -10.63616,24.59187 -9.20493,29.07405c0.12781,0.40019 0.24492,0.7667 0.3387,1.10173c0.1878,-0.43134 2.10117,-2.42608 15.55865,-11.64778c29.14761,-19.92211 3.96167,-53.18769 3.96167,-53.18769zM284.84946,286.27348c-0.01057,-0.03919 -0.02138,-0.07873 -0.03264,-0.11884c-0.05332,0.12251 0.03264,0.11884 0.03264,0.11884zM338.09744,266.82142c0,0.01766 -0.00036,0.03532 -0.00108,0.05297l-0.013,0.41208c-0.00108,0.03759 -0.00343,0.07511 -0.00704,0.11255l-0.04063,0.41029c-0.00361,0.03622 -0.00831,0.07228 -0.01408,0.10817l-0.06716,0.40683c-0.00614,0.03629 -0.01336,0.07235 -0.02167,0.10817l-0.09371,0.40152c-0.00831,0.03564 -0.01788,0.07096 -0.02871,0.10595l-0.11971,0.39454c-0.01047,0.03495 -0.02221,0.06953 -0.0352,0.10373l-0.14516,0.38592c-0.01264,0.03434 -0.02654,0.06823 -0.04171,0.10166l-0.17008,0.37552c-0.01516,0.03355 -0.03159,0.06657 -0.04929,0.09906l-0.19445,0.36366c-0.01697,0.03228 -0.0352,0.06397 -0.05471,0.09506l-0.21774,0.35012c-0.01914,0.03095 -0.03936,0.06122 -0.06067,0.09083l-0.23995,0.33512c-0.02131,0.03005 -0.04369,0.05935 -0.06716,0.08791l-0.26162,0.31871c-0.02347,0.02853 -0.04785,0.05626 -0.07312,0.0832l-0.2822,0.30094c-0.02455,0.02629 -0.05002,0.05176 -0.07637,0.07642l-0.30061,0.28187c-0.02708,0.02546 -0.05506,0.04999 -0.08396,0.07361l-0.31903,0.26156c-0.02816,0.02289 -0.05687,0.04485 -0.08612,0.06587l-0.33474,0.24016c-0.03033,0.02174 -0.0612,0.04243 -0.09262,0.06207l-0.35044,0.21769c-0.01553,0.00953 -0.03106,0.01882 -0.04658,0.02784l-0.60068,0.3467l-1.81722,1.04917l-1.21112,0.69943l-2.42305,1.3989l-3.63444,2.09828l-1.81716,1.04922l-0.60578,0.34968l-0.60572,0.34974l-5.4516,3.1475l-0.60572,0.34968l-0.60572,0.34974l-1.2115,0.69943l-1.21144,0.69948l-5.4516,3.1476l-2.42294,1.39852l-0.60578,0.3499l-1.21144,0.69926l-1.2115,0.69981l-1.81716,1.04917l-1.81722,1.04917l-0.60572,0.34936l-0.60578,0.3499l-4.24011,2.44824l-3.63444,2.09833l-0.60572,0.34936l-5.4516,3.1475l-3.63441,2.09833c-0.01578,0.00939 -0.0317,0.01824 -0.04777,0.02654l-0.36362,0.19445c-0.03252,0.01769 -0.06559,0.03412 -0.09919,0.04929l-0.37556,0.17008c-0.03338,0.01516 -0.06723,0.02907 -0.10153,0.04171l-0.38588,0.14516c-0.03421,0.013 -0.06882,0.02473 -0.10381,0.0352l-0.39455,0.11971c-0.035,0.01083 -0.07031,0.0204 -0.10593,0.02871l-0.40153,0.09371c-0.03581,0.00831 -0.07185,0.01553 -0.10813,0.02167l-0.4068,0.06716c-0.03591,0.00578 -0.07198,0.01047 -0.1082,0.01408l-0.41032,0.04063c-0.03671,0.00361 -0.07349,0.00596 -0.11036,0.00704l-0.41208,0.01354c-0.03678,0.00145 -0.07356,0.00145 -0.11034,0l-0.41208,-0.01354c-0.03687,-0.00108 -0.07365,-0.00343 -0.11036,-0.00704l-0.41032,-0.04063c-0.03622,-0.00361 -0.07228,-0.00831 -0.1082,-0.01408l-0.4068,-0.06716c-0.03628,-0.00614 -0.07232,-0.01336 -0.10813,-0.02167l-0.40153,-0.09371c-0.03562,-0.00831 -0.07094,-0.01788 -0.10593,-0.02871l-0.39455,-0.11971c-0.03499,-0.01047 -0.06959,-0.02221 -0.10381,-0.0352l-0.38588,-0.14516c-0.0343,-0.01264 -0.06815,-0.02654 -0.10153,-0.04171l-0.37556,-0.17008c-0.0336,-0.01516 -0.06666,-0.03159 -0.09919,-0.04929l-0.36362,-0.19445c-0.01607,-0.00831 -0.03199,-0.01715 -0.04777,-0.02654l-0.60047,-0.34665l-0.60574,-0.34936l-0.60573,-0.3499l-0.60572,-0.3499l-6.05737,-3.49686l-0.60572,-0.3499l-6.05732,-3.4974l-0.60578,-0.34936l-6.05732,-3.4974l-0.60572,-0.3499l-3.02866,-1.74843l-0.60578,-0.3499l-0.60572,-0.34936l-0.60572,-0.3499l-6.05732,-3.49718l-0.60578,-0.34974l-0.60572,-0.34968l-2.42294,-1.3989l-1.21144,-0.69943l-0.60578,-0.34974l-0.60572,-0.34974l-0.60572,-0.34968l-1.21144,-0.69948l-0.60578,-0.34968l-1.21144,-0.69948l-5.4516,-3.1475l-4.24032,-2.44801l-2.42277,-1.3989c-0.01553,-0.00902 -0.03106,-0.01831 -0.04658,-0.02784l-0.35044,-0.21769c-0.03141,-0.01965 -0.06229,-0.04033 -0.09262,-0.06207l-0.33474,-0.24016c-0.02925,-0.02101 -0.05796,-0.04297 -0.08612,-0.06587l-0.31903,-0.26156c-0.02889,-0.02361 -0.05687,-0.04815 -0.08396,-0.07361l-0.30061,-0.28187c-0.02636,-0.02466 -0.05182,-0.05014 -0.07637,-0.07642l-0.2822,-0.30094c-0.02528,-0.02694 -0.04965,-0.05467 -0.07312,-0.0832l-0.26162,-0.31871c-0.02347,-0.02856 -0.04586,-0.05787 -0.06716,-0.08791l-0.23995,-0.33512c-0.02131,-0.02961 -0.04153,-0.05989 -0.06067,-0.09083l-0.21774,-0.35012c-0.0195,-0.03109 -0.03773,-0.06278 -0.05471,-0.09506l-0.19445,-0.36366c-0.01769,-0.0325 -0.03412,-0.06552 -0.04929,-0.09906l-0.17008,-0.37552c-0.01516,-0.03343 -0.02907,-0.06733 -0.04171,-0.10166l-0.14516,-0.38592c-0.013,-0.03419 -0.02473,-0.06877 -0.0352,-0.10373l-0.11971,-0.39454c-0.01083,-0.03499 -0.0204,-0.07031 -0.02871,-0.10595l-0.09371,-0.40152c-0.00831,-0.03582 -0.01553,-0.07188 -0.02167,-0.10817l-0.06716,-0.40683c-0.00578,-0.03589 -0.01047,-0.07195 -0.01408,-0.10817l-0.04063,-0.41029c-0.00361,-0.03745 -0.00596,-0.07496 -0.00704,-0.11255l-0.013,-0.41208c-0.00072,-0.01766 -0.00108,-0.03532 -0.00108,-0.05297v-63.64324c0,-0.01766 0.00036,-0.03532 0.00108,-0.05297l0.013,-0.41208c0.00108,-0.03759 0.00343,-0.07511 0.00704,-0.11255l0.04063,-0.41029c0.00361,-0.03622 0.00831,-0.07228 0.01408,-0.10817l0.06716,-0.40683c0.00614,-0.03629 0.01336,-0.07235 0.02167,-0.10817l0.09371,-0.40152c0.00831,-0.03564 0.01788,-0.07096 0.02871,-0.10595l0.11971,-0.39454c0.01047,-0.03495 0.02221,-0.06953 0.0352,-0.10373l0.14516,-0.38592c0.01264,-0.03434 0.02654,-0.06823 0.04171,-0.10166l0.17008,-0.37552c0.01516,-0.03355 0.03159,-0.06657 0.04929,-0.09906l0.19445,-0.36366c0.01697,-0.03228 0.0352,-0.06397 0.05471,-0.09506l0.21774,-0.35012c0.01914,-0.03095 0.03936,-0.06122 0.06067,-0.09083l0.23995,-0.33512c0.02131,-0.03005 0.04369,-0.05935 0.06716,-0.08791l0.26162,-0.31871c0.02347,-0.02853 0.04785,-0.05626 0.07312,-0.0832l0.2822,-0.30094c0.02455,-0.02629 0.05002,-0.05176 0.07637,-0.07642l0.30061,-0.28187c0.02708,-0.02546 0.05506,-0.04999 0.08396,-0.07361l0.31903,-0.26156c0.02816,-0.02289 0.05687,-0.04485 0.08612,-0.06587l0.33474,-0.24016c0.03033,-0.02174 0.0612,-0.04243 0.09262,-0.06207l0.35044,-0.21769c0.01553,-0.00953 0.03106,-0.01882 0.04658,-0.02784l0.60068,-0.3467l1.21112,-0.69943l1.81722,-1.04917l4.84598,-2.79776l0.60572,-0.34974l0.60578,-0.34968l3.02866,-1.74864l3.63438,-2.09833l3.02866,-1.74859l5.4516,-3.1475l4.24016,-2.44818l0.60572,-0.34936l5.45165,-3.1475l1.81716,-1.04917l0.60578,-0.3499l2.42289,-1.39907l0.60578,-0.34936l0.60572,-0.3499l1.21144,-0.69926l1.2115,-0.69981l3.63438,-2.09833l0.60578,-0.34936l0.60572,-0.3499l1.81722,-1.04917l4.24011,-2.44824l0.60574,-0.34936c0.01578,-0.00939 0.0317,-0.01824 0.04777,-0.02654l0.36362,-0.19445c0.03252,-0.01769 0.06559,-0.03412 0.09919,-0.04929l0.37556,-0.17008c0.03338,-0.01516 0.06723,-0.02907 0.10153,-0.04171l0.38588,-0.14516c0.03421,-0.013 0.06882,-0.02473 0.10381,-0.0352l0.39455,-0.11971c0.035,-0.01083 0.07031,-0.0204 0.10593,-0.02871l0.40153,-0.09371c0.03581,-0.00831 0.07185,-0.01553 0.10813,-0.02167l0.4068,-0.06716c0.03591,-0.00578 0.07198,-0.01047 0.1082,-0.01408l0.41032,-0.04063c0.03671,-0.00361 0.07349,-0.00596 0.11036,-0.00704l0.41208,-0.01354c0.03678,-0.00145 0.07356,-0.00145 0.11034,0l0.41208,0.01354c0.03687,0.00108 0.07365,0.00343 0.11036,0.00704l0.41032,0.04063c0.03622,0.00361 0.07228,0.00831 0.1082,0.01408l0.4068,0.06716c0.03628,0.00614 0.07232,0.01336 0.10813,0.02167l0.40153,0.09371c0.03562,0.00831 0.07094,0.01788 0.10593,0.02871l0.39455,0.11971c0.03499,0.01047 0.06959,0.02221 0.10381,0.0352l0.38588,0.14516c0.0343,0.01264 0.06815,0.02654 0.10153,0.04171l0.37556,0.17008c0.0336,0.01516 0.06666,0.03159 0.09919,0.04929l0.36362,0.19445c0.01607,0.00831 0.03199,0.01715 0.04777,0.02654l6.05209,3.49415l0.60572,0.34936l1.21144,0.69981l2.42294,1.39852l6.05737,3.4974l0.60572,0.3499l0.60572,0.34936l4.24016,2.44824l3.02866,1.74843l6.05732,3.49735l0.60578,0.34974l0.60572,0.34974l1.21144,0.69943l5.45165,3.1475l5.4516,3.1475l1.21144,0.69943l3.02866,1.74864l1.2115,0.69943l3.02882,1.74859l2.42277,1.3989c0.01553,0.00902 0.03106,0.01831 0.04658,0.02784l0.35044,0.21769c0.03141,0.01965 0.06229,0.04033 0.09262,0.06207l0.33474,0.24016c0.02925,0.02101 0.05796,0.04297 0.08612,0.06587l0.31903,0.26156c0.02889,0.02361 0.05687,0.04815 0.08396,0.07361l0.30061,0.28187c0.02636,0.02466 0.05182,0.05014 0.07637,0.07642l0.2822,0.30094c0.02528,0.02694 0.04965,0.05467 0.07312,0.0832l0.26162,0.31871c0.02347,0.02856 0.04586,0.05787 0.06716,0.08791l0.23995,0.33512c0.02131,0.02961 0.04153,0.05989 0.06067,0.09083l0.21774,0.35012c0.0195,0.03109 0.03773,0.06278 0.05471,0.09506l0.19445,0.36366c0.01769,0.0325 0.03412,0.06552 0.04929,0.09906l0.17008,0.37552c0.01516,0.03343 0.02907,0.06733 0.04171,0.10166l0.14516,0.38592c0.013,0.03419 0.02473,0.06877 0.0352,0.10373l0.11971,0.39454c0.01083,0.03499 0.0204,0.07031 0.02871,0.10595l0.09371,0.40152c0.00831,0.03582 0.01553,0.07188 0.02167,0.10817l0.06716,0.40683c0.00578,0.03589 0.01047,0.07195 0.01408,0.10817l0.04063,0.41029c0.00361,0.03745 0.00596,0.07496 0.00704,0.11255l0.013,0.41208c0.00072,0.01766 0.00108,0.03532 0.00108,0.05297zM334.73708,203.20473l-0.01029,-0.32926l-0.02979,-0.2998l-0.04929,-0.29855l-0.06879,-0.29433l-0.08775,-0.28962l-0.10671,-0.28312l-0.12458,-0.27504l-0.14245,-0.26649l-0.15979,-0.25707l-0.17603,-0.24569l-0.1912,-0.23296l-0.20745,-0.22115l-0.21991,-0.20664l-0.23453,-0.1919l-0.24483,-0.17598l-0.28003,-0.17393l-2.39949,-1.38537l-3.02882,-1.74859l-1.2115,-0.69943l-3.02866,-1.74859l-1.21144,-0.69948l-5.4516,-3.1475l-5.45165,-3.1475l-0.60572,-0.34968l-1.21144,-0.69948l-0.60578,-0.34968l-6.05732,-3.49724l-3.02866,-1.74848l-4.24016,-2.44824l-0.60572,-0.3499l-0.60572,-0.34936l-6.05737,-3.4974l-2.42294,-1.39907l-0.60572,-0.34936l-1.21144,-0.69981l-6.02842,-3.48006l-0.29075,-0.15545l-0.27501,-0.12458l-0.28316,-0.10671l-0.28955,-0.08775l-0.29437,-0.06879l-0.29857,-0.04929l-0.30087,-0.02979l-0.30164,-0.00975l-0.30164,0.00975l-0.30087,0.02979l-0.29857,0.04929l-0.29437,0.06879l-0.28955,0.08775l-0.28316,0.10671l-0.27501,0.12458l-0.29073,0.15545l-0.58208,0.33582l-4.24012,2.44824l-1.81722,1.04917l-0.60572,0.34936l-0.60578,0.3499l-3.63438,2.09833l-1.21144,0.69926l-1.2115,0.69981l-0.60572,0.34936l-0.60572,0.3499l-2.42294,1.39907l-0.60578,0.34936l-1.81716,1.04917l-5.4516,3.14771l-0.60578,0.34974l-4.24011,2.44801l-5.45165,3.1475l-3.02866,1.74859l-3.63438,2.09833l-3.02866,1.74864l-0.60578,0.34968l-0.60572,0.34974l-4.84588,2.79776l-1.81733,1.04917l-1.21112,0.69948l-0.57739,0.33311l-0.28003,0.17393l-0.24483,0.17598l-0.23453,0.1919l-0.21991,0.20664l-0.20745,0.22115l-0.1912,0.23296l-0.17603,0.24569l-0.15979,0.25707l-0.14245,0.26649l-0.12458,0.27504l-0.10671,0.28312l-0.08775,0.28962l-0.06879,0.29433l-0.04929,0.29855l-0.02979,0.2998l-0.01029,0.32926v63.59016l0.01029,0.32926l0.02979,0.2998l0.04929,0.29855l0.06879,0.29433l0.08775,0.28962l0.10671,0.28312l0.12458,0.27504l0.14245,0.26649l0.15979,0.25707l0.17603,0.24569l0.1912,0.23296l0.20745,0.22115l0.21991,0.20664l0.23453,0.1919l0.24483,0.17598l0.28003,0.17393l2.39949,1.38537l4.24032,2.44801l5.4516,3.1475l1.21144,0.69943l0.60572,0.34974l0.60578,0.34974l0.60572,0.34968l1.21144,0.69948l0.60578,0.34968l1.21144,0.69948l2.42294,1.39885l0.60572,0.34974l0.60578,0.34974l6.05732,3.49718l0.60572,0.34974l0.60578,0.34974l0.60572,0.34968l3.02866,1.74886l0.60572,0.34936l6.05737,3.4974l0.60572,0.3499l6.05732,3.49686l0.60572,0.3499l6.05736,3.4974l0.60574,0.34936l0.60573,0.3499l0.60573,0.3499l0.57683,0.33257l0.29071,0.15545l0.27501,0.12458l0.28316,0.10671l0.28955,0.08775l0.29437,0.06879l0.29857,0.04929l0.30087,0.02979l0.30164,0.00975l0.30164,-0.00975l0.30087,-0.02979l0.29857,-0.04929l0.29437,-0.06879l0.28955,-0.08775l0.28316,-0.10671l0.27501,-0.12458l0.29076,-0.15545l3.61073,-2.08425l5.4516,-3.1475l0.60572,-0.3499l3.63444,-2.09833l4.24011,-2.44824l0.60578,-0.34936l0.60572,-0.3499l1.81722,-1.04917l1.81716,-1.04917l1.2115,-0.69948l1.21144,-0.69943l0.60578,-0.34974l2.42289,-1.39885l5.45165,-3.1475l1.21144,-0.69948l1.2115,-0.69943l0.60572,-0.34974l0.60572,-0.34968l5.4516,-3.1475l0.60572,-0.34974l0.60578,-0.34974l0.60572,-0.34968l1.21144,-0.69948l3.63444,-2.09833l2.42294,-1.39885l1.21123,-0.69948l1.81722,-1.04917l0.57739,-0.33311l0.28003,-0.17393l0.24483,-0.17598l0.23453,-0.1919l0.21991,-0.20664l0.20745,-0.22115l0.1912,-0.23296l0.17603,-0.24569l0.15979,-0.25707l0.14245,-0.26649l0.12458,-0.27504l0.10671,-0.28312l0.08775,-0.28962l0.06879,-0.29433l0.04929,-0.29855l0.02979,-0.2998l0.01029,-0.32926z" data-paper-data="{&quot;isPathIcon&quot;:true}"/></g><g data-paper-data="{&quot;isContainerElementsWrapper&quot;:true}" fill-rule="evenodd"><path d="M183.78355,143.78326c-11.90045,11.90045 -21.11474,25.56776 -27.64286,41.00193c-6.76021,15.98291 -10.14031,32.72112 -10.14031,50.21462c0,17.49331 3.3801,34.23142 10.14031,50.21433c6.52818,15.43442 15.74247,29.1018 27.64286,41.00212c11.90042,11.90032 25.56773,21.11474 41.00193,27.64323c15.98285,6.76033 32.72109,10.1405 50.21471,10.1405c17.49325,0 34.23142,-3.38017 50.21452,-10.1405c15.43442,-6.5285 29.1018,-15.74291 41.00212,-27.64323c11.90032,-11.90032 21.11442,-25.5677 27.64229,-41.00212c6.76033,-15.98291 10.1405,-32.72102 10.1405,-50.21433c0,-17.49362 -3.38017,-34.23183 -10.1405,-50.21462c-6.52787,-15.43427 -15.74197,-29.10158 -27.64229,-41.00193c-11.90032,-11.90058 -25.5677,-21.11489 -41.00212,-27.64295c-15.98285,-6.76021 -32.72102,-10.14031 -50.21452,-10.14031c-17.4935,0 -34.2317,3.3801 -50.21462,10.14031c-15.43423,6.52818 -29.10158,15.7425 -41.00203,27.64295zM149.04988,234.99981c0,-17.08134 3.29981,-33.4236 9.89943,-49.02678c6.37369,-15.06899 15.37053,-28.41349 26.99051,-40.03349c11.62014,-11.62011 24.96467,-20.61698 40.03359,-26.9906c15.60324,-6.59962 31.9455,-9.89943 49.02678,-9.89943c17.08122,0 33.42357,3.29981 49.02706,9.89943c15.06876,6.37375 28.4132,15.37062 40.03331,26.9906c11.62011,11.62024 20.61682,24.96473 26.99013,40.03349c6.59949,15.60318 9.89924,31.94544 9.89924,49.02678c0,17.08115 -3.29975,33.42345 -9.89924,49.02688c-6.37394,15.06939 -15.37065,28.41382 -26.99013,40.03331c-11.62011,11.62011 -24.96455,20.61714 -40.03331,26.99108c-15.6033,6.59949 -31.94566,9.89924 -49.02706,9.89924c-17.08134,0 -33.42357,-3.29975 -49.02669,-9.89924c-15.06901,-6.37394 -28.41357,-15.37097 -40.03368,-26.99108c-11.62024,-11.62011 -20.61707,-24.96455 -26.99051,-40.03331c-6.59962,-15.60343 -9.89943,-31.94572 -9.89943,-49.02688z" data-paper-data="{&quot;isAdditionalOutlinePath&quot;:true}"/><path d="M153.01438,234.99981c0,-67.37089 54.6149,-121.98581 121.98581,-121.98581c67.37044,0 121.9859,54.61491 121.9859,121.98581c0,67.37119 -54.61546,121.98571 -121.9859,121.98571c-67.37091,0 -121.98581,-54.61452 -121.98581,-121.98571zM247.49521,127.95899l15.15298,-2.75726c1.86195,-0.31779 2.97524,0.47583 3.33958,2.38076c0.3749,2.03196 -0.44388,3.25297 -2.45653,3.66293l-4.46898,0.82462l2.77544,14.93698c0.33613,1.96175 -0.48453,3.13794 -2.46199,3.52857c-1.99455,0.36803 -3.17004,-0.41405 -3.52656,-2.3463l-2.75179,-15.01859l-4.48774,0.82802c-1.99455,0.36805 -3.17698,-0.45145 -3.54729,-2.45851c-0.35332,-1.98437 0.45764,-3.17814 2.43287,-3.58122zM318.37647,133.37144l-14.54634,-5.06196c-1.91765,-0.62172 -3.21132,0.01791 -3.881,1.91897l-5.98158,17.32659c-0.62916,1.86139 0.00886,3.12094 1.91407,3.77866l14.37868,4.96392c1.90182,0.62962 3.17692,0.00381 3.82625,-1.87743c0.66598,-1.92917 0.03644,-3.23274 -1.88862,-3.91072l-11.43078,-3.94633l3.95263,-11.44915l11.44859,3.95253c1.95396,0.63419 3.26802,-0.02529 3.94217,-1.97843c0.62074,-1.83748 0.04272,-3.07636 -1.73406,-3.71664zM237.10713,134.11096c-0.78721,-1.82831 -2.12215,-2.36502 -4.00484,-1.61032c-0.933,0.3808 -1.53609,0.89907 -1.80927,1.55481c-0.27318,0.65574 -0.21641,1.44895 0.1703,2.37963l6.90515,16.91797c0.75689,1.85435 2.08383,2.42177 3.98081,1.70227c1.85168,-0.79687 2.40843,-2.13313 1.67026,-4.00879zM307.95041,139.44792c-1.88956,-0.62549 -3.17126,0.01828 -3.8451,1.93131c-0.65781,1.90521 -0.03204,3.18069 1.87731,3.82644l5.76953,1.99172c1.90559,0.65772 3.20708,0.03421 3.90447,-1.87053c0.63425,-1.9135 -0.00565,-3.20717 -1.91878,-3.881zM332.63537,140.6825c0.82619,0.58807 1.30495,1.23235 1.43626,1.93282c0.13194,0.70041 0.3732,3.47077 0.72473,8.31096c4.76679,-1.27519 7.50077,-1.96269 8.20193,-2.06258c0.70116,-0.0999 1.46453,0.14419 2.29104,0.73226c0.80546,0.57335 1.27793,1.22094 1.41741,1.94277c0.13382,0.68648 -0.07854,1.42215 -0.63708,2.20703l-0.07728,0.10844c-0.62483,0.87782 -1.6483,1.38644 -3.06948,1.52583l-7.75334,1.97346l0.72284,7.93633c0.2865,1.43333 0.16147,2.52694 -0.37509,3.28084c-0.03675,0.05164 -0.08199,0.10476 -0.13665,0.15937l-0.14325,0.20139c-0.5221,0.73321 -1.12054,1.14754 -1.79532,1.24297c-0.75583,0.09999 -1.52861,-0.14702 -2.31931,-0.74103c-0.85478,-0.59245 -1.34013,-1.26066 -1.45605,-2.00463c-0.11592,-0.74397 -0.34116,-3.48302 -0.67478,-8.21713c-4.67066,1.24997 -7.37008,1.93856 -8.09827,2.06576c-0.7285,0.1272 -1.51636,-0.11059 -2.36266,-0.71336l-0.0622,-0.04411c-0.77467,-0.55132 -1.23552,-1.18272 -1.38254,-1.89423c-0.14136,-0.67615 0.04901,-1.38084 0.57111,-2.11409l0.14325,-0.20138c0.03393,-0.06932 0.0688,-0.12979 0.10555,-0.18144c0.53718,-0.75389 1.52579,-1.22487 2.96676,-1.41292l7.9324,-1.79914l-0.86043,-8.10413c-0.33362,-1.38904 -0.18849,-2.5224 0.43634,-3.40027l0.07728,-0.10847c0.55886,-0.78485 1.18463,-1.22647 1.87637,-1.32486c0.7285,-0.10442 1.49469,0.13015 2.30046,0.70352zM206.93685,147.98771l8.81641,-5.97112c1.66885,-1.13022 3.57001,-1.49918 5.70348,-1.10688c2.08779,0.39255 3.68969,1.41276 4.80571,3.06062l0.05325,0.07869c1.1235,1.70403 1.53028,3.24276 1.22035,4.61619c1.47163,0.27406 2.75122,1.21402 3.83878,2.81988l0.06399,0.09446c1.10217,1.67254 1.45096,3.57209 1.04628,5.69862c-0.40461,2.12654 -1.38361,3.71584 -2.93698,4.76787l-9.03683,6.12032c-1.63731,1.10891 -3.02464,0.82371 -4.16201,-0.85562l-10.2254,-15.0981c-1.13023,-1.66882 -0.85924,-3.07713 0.81296,-4.22494zM212.89425,151.32469l6.79204,10.02866l6.25026,-4.23304c0.43565,-0.29509 0.68593,-0.62345 0.75083,-0.98508c0.06176,-0.344 -0.04423,-0.71812 -0.31797,-1.12233c-0.57582,-0.85015 -1.27821,-0.99445 -2.10745,-0.43288l-1.25437,0.8266c-0.81941,0.55496 -1.57885,0.77061 -2.27831,0.64695c-0.75187,-0.13293 -1.43443,-0.658 -2.0477,-1.5752c-0.51286,-0.75724 -0.71322,-1.46052 -0.60108,-2.10984c0.12409,-0.71868 0.63095,-1.37125 1.5206,-1.95771l1.2702,-0.83729c0.38074,-0.25785 0.60868,-0.55072 0.68382,-0.87862c0.0906,-0.39525 -0.04078,-0.8414 -0.39412,-1.33843c-0.21399,-0.33601 -0.46283,-0.54202 -0.7465,-0.61804c-0.35749,-0.09581 -0.77034,0.01483 -1.23854,0.33192zM195.08785,158.69226l-9.85561,11.83573c-1.25663,1.5763 -1.11294,3.01228 0.43107,4.30792l14.11477,11.69447c1.52108,1.24375 2.92458,1.08963 4.21049,-0.46235l9.70494,-11.7136c1.2583,-1.55846 1.12118,-2.97254 -0.41134,-4.24224c-1.57156,-1.30209 -3.01327,-1.17141 -4.32511,0.39205l-7.71543,9.3123l-9.32692,-7.72761l7.72758,-9.32686c1.28089,-1.60559 1.12579,-3.06751 -0.4653,-4.38577c-1.50156,-1.22762 -2.8646,-1.12231 -4.08913,0.31595zM363.44798,169.16015l-6.62337,-8.3861c-1.25908,-1.57386 -2.67366,-1.74901 -4.24374,-0.52544l-14.36917,11.34913c-1.57197,1.24136 -1.72935,2.65783 -0.47216,4.24949c1.27227,1.61155 2.70099,1.78382 4.28427,0.51683l11.90755,-9.40455l4.16081,5.2674c0.98201,1.2435 1.08002,2.17559 0.29404,2.79627c-0.76996,0.64057 -1.64453,0.32137 -2.62183,-0.95779l-1.34673,-1.67441c-1.26285,-1.61937 -2.70005,-1.79268 -4.3116,-0.51994c-1.60401,1.28283 -1.78495,2.71004 -0.54378,4.28182l1.89239,2.33411c1.28798,1.6314 2.98592,2.57992 5.09381,2.84556c2.10821,0.26558 3.9874,-0.2537 5.63853,-1.55792l0.04524,-0.03534c1.58139,-1.24922 2.48392,-2.93924 2.70759,-5.07006c0.21487,-2.14072 -0.28273,-3.97713 -1.49186,-5.50904zM199.60722,234.99981c0,-41.63835 33.75462,-75.39295 75.39297,-75.39295c41.63845,0 75.39331,33.75459 75.39331,75.39295c0,41.63826 -33.75487,75.39312 -75.39331,75.39312c-41.63835,0 -75.39297,-33.75487 -75.39297,-75.39312zM197.10822,170.58915c-1.25016,1.54866 -1.0984,2.97486 0.45529,4.27861c0.77599,0.64292 1.51752,0.93011 2.22458,0.86157c0.70706,-0.06848 1.37963,-0.49279 2.01771,-1.27293l3.89411,-4.69997c1.2859,-1.55207 1.16008,-2.98974 -0.37746,-4.31302c-1.56822,-1.26638 -3.0042,-1.12271 -4.30795,0.43101zM170.84414,198.05559l6.16328,-14.1149c0.7748,-1.72269 2.05439,-2.20399 3.83878,-1.44389c1.8956,0.82211 2.45229,2.18275 1.67007,4.08193l-1.80823,4.1692l13.94564,6.02766c1.8158,0.81514 2.33433,2.15231 1.55557,4.01153c-0.4163,0.95989 -0.96508,1.56817 -1.64632,1.82482c-0.63934,0.24088 -1.39536,0.17209 -2.26804,-0.20639l-14.0004,-6.09288l-1.81577,4.18673c-0.80703,1.86073 -2.14672,2.38506 -4.01907,1.573c-1.84404,-0.8136 -2.38255,-2.1525 -1.61551,-4.01681zM374.36693,186.70388l3.99589,9.91121c0.73886,1.83415 0.6842,3.74916 -0.16492,5.74522c-0.84913,1.99615 -2.19302,3.35796 -4.0317,4.08551c-1.95208,0.78674 -3.74143,1.0946 -5.36806,0.92358c-1.62757,-0.17105 -2.75094,-0.95835 -3.372,-2.362l-2.12611,4.896c-0.32514,0.78711 -0.94054,1.36312 -1.84621,1.72803c-1.88297,0.71832 -3.19671,0.15446 -3.94122,-1.69137l-0.02827,-0.07049c-0.37886,-0.94064 -0.29309,-2.04836 0.25917,-3.32337l4.72627,-8.46562c0.62766,-1.35992 1.40359,-2.23295 2.32779,-2.6191c1.90464,-0.76779 3.23441,-0.19697 3.99023,1.71239l0.82085,1.98579c0.41278,1.07148 0.91195,1.65977 1.49751,1.76488c0.23561,0.04228 0.48535,0.00631 0.74923,-0.10791c0.92923,-0.37433 1.09698,-1.2964 0.50514,-2.76602l-2.50968,-6.22538l-14.07324,5.67303c-1.87637,0.77006 -3.19859,0.20272 -3.96667,-1.70193c-0.75771,-1.88108 -0.20828,-3.19605 1.64925,-3.9449l16.98346,-6.84597c1.84998,-0.73226 3.15807,-0.16615 3.92332,1.69844zM172.72267,214.00746c0.23711,-1.93772 -0.65009,-3.03631 -2.6616,-3.29566c-2.00064,-0.24522 -3.13614,0.63083 -3.40649,2.62814l-1.16983,9.07085c-0.76723,6.04887 1.33843,9.39438 6.31699,10.03636l0.09434,0.01216c4.96602,0.64047 7.84526,-2.06212 8.63771,-8.10778l0.38178,-2.96072c0.20231,-1.6478 0.65254,-2.59528 1.35068,-2.84245c0.17611,-0.06233 0.36802,-0.08011 0.57573,-0.05334c1.01832,0.13131 1.40246,1.21614 1.1524,3.25448l-1.11564,9.09705c-0.27971,1.97061 0.57912,3.09106 2.5765,3.36144c1.96119,0.25295 3.07702,-0.61936 3.3474,-2.61665l1.16983,-9.07085c0.75953,-6.0882 -1.33115,-9.4509 -6.27203,-10.0881c-5.08238,-0.62985 -8.02771,2.08977 -8.836,8.15886l-0.38178,2.96082c-0.25012,2.03828 -0.8545,3.00841 -1.81323,2.91031c-1.00415,-0.14221 -1.38744,-1.23335 -1.14995,-3.27333zM385.44326,231.82572l-1.49469,-15.32912c-0.23749,-2.00181 -1.36086,-2.9087 -3.36729,-2.72088l-18.23877,1.82331c-1.95459,0.20809 -2.83105,1.31487 -2.63031,3.32045l1.51354,15.13611c0.2243,1.9904 1.32599,2.88665 3.30697,2.68865c2.03093,-0.203 2.95074,-1.32053 2.76037,-3.35249l-1.20254,-12.03327l12.05174,-1.2048l1.20442,12.05212c0.2422,2.0396 1.39196,2.95667 3.44739,2.75113c1.92915,-0.20554 2.81126,-1.24928 2.64916,-3.13121zM375.5591,224.90257c-0.22304,-1.97784 -1.34421,-2.87217 -3.36352,-2.68299c-2.00548,0.20045 -2.90173,1.30281 -2.68874,3.30716l0.60692,6.07337c0.20074,2.00548 1.31186,2.92633 3.3343,2.76244c2.00265,-0.22571 2.90927,-1.34833 2.72078,-3.36766zM192.11657,258.64905c0.08896,0.51174 0.04674,1.02724 -0.12685,1.54652c-0.17359,0.51928 -0.47743,0.95468 -0.91161,1.3062c-0.43418,0.35247 -0.91349,0.57394 -1.43805,0.66535c-0.52455,0.09142 -4.04668,-0.83405 -10.56648,-2.77639c-6.5197,-1.94234 -10.03966,-3.00351 -10.55979,-3.18351c-0.52022,-0.17906 -0.95628,-0.48629 -1.30837,-0.92075c-0.35209,-0.43352 -0.57262,-0.90756 -0.66158,-1.41929c-0.09113,-0.52437 -0.04373,-1.04732 0.14231,-1.56857c0.18613,-0.52126 0.49364,-0.95421 0.92263,-1.29895c0.42899,-0.34474 3.38306,-2.54034 8.8622,-6.5868c5.47908,-4.04646 8.48089,-6.11524 9.00544,-6.20635c0.52455,-0.09123 1.05062,-0.04429 1.57809,0.1407c0.52748,0.1849 0.96099,0.49562 1.30055,0.93196c0.33965,0.43634 0.55283,0.90426 0.63962,1.40384zM378.40051,265.21304c-1.99323,-0.3732 -2.81691,-1.52013 -2.47104,-3.4408l1.72087,-9.09912c0.35247,-2.02329 0.0311,-3.13432 -0.96316,-3.33317c-0.95185,-0.15217 -1.61029,0.78221 -1.97532,2.80315l-0.54849,2.93415c-1.14976,6.01362 -4.24469,8.56288 -9.28289,7.6459c-4.89684,-0.9151 -6.79395,-4.39076 -5.69131,-10.42634l1.68035,-8.99018c0.38357,-1.97881 1.54652,-2.78656 3.49075,-2.42307c1.97909,0.38291 2.77262,1.5502 2.38245,3.50177l-1.62851,9.01939c-0.36566,2.02122 -0.04335,3.12574 0.96599,3.31423c1.02159,0.19131 1.71804,-0.73603 2.08747,-2.78204l0.54849,-2.93434c1.13342,-5.99113 4.16081,-8.52653 9.08216,-7.60622l0.0933,0.01743c4.93454,0.92263 6.84767,4.3819 5.73937,10.37762l-1.68035,8.99018c-0.38357,1.97909 -1.56631,2.78958 -3.55012,2.43146zM183.8121,246.62077l-7.73279,5.58953l9.16509,2.65302zM364.36873,288.99893c-0.87269,1.74726 -0.4043,3.07891 1.40421,3.99683c1.8038,0.90096 3.16655,0.45519 4.09013,-1.33636l4.13913,-8.15575c2.74749,-5.44282 1.88297,-9.30017 -2.59356,-11.57205l-0.08482,-0.04335c-4.46459,-2.26559 -8.08224,-0.68263 -10.85298,4.74888l-1.3505,2.66235c-0.93017,1.85941 -1.85846,2.55397 -2.78487,2.0837c-0.91604,-0.46493 -0.91478,-1.61595 0.00377,-3.45305l4.09578,-8.19816c0.92358,-1.76328 0.48912,-3.10624 -1.30243,-4.02981c-1.76328,-0.8953 -3.10624,-0.44671 -4.02981,1.34484l-4.13913,8.15575c-2.75377,5.48303 -1.90935,9.35169 2.53324,11.60597c4.5783,2.29481 8.26413,0.71813 11.05748,-4.73004l1.3505,-2.66235c0.91792,-1.83679 1.81228,-2.54926 2.68309,-2.13554c0.89907,0.47027 0.89436,1.62663 -0.01225,3.46907zM180.12637,291.66599l-6.94115,-13.74905c-0.83273,-1.69542 -0.38743,-2.98749 1.33598,-3.87714c1.84225,-0.93583 3.24534,-0.49666 4.20925,1.31657l2.05807,4.05149l13.53672,-6.89667c1.7858,-0.87928 3.14648,-0.42503 4.08183,1.35992c0.91855,1.80852 0.50194,3.15713 -1.24985,4.04772l-13.62182,6.89761l2.06674,4.06845c0.45639,0.89845 0.57475,1.68788 0.35511,2.36832c-0.22235,0.6886 -0.79126,1.26536 -1.70673,1.73029c-1.80277,0.9019 -3.17748,0.46273 -4.12415,-1.31751zM206.22277,303.58014l1.4031,1.38537c0.17021,0.17246 0.16884,0.34776 -0.00411,0.52587c-0.18549,0.18849 -0.37371,0.19225 -0.56465,0.01131l-1.10611,-1.08756l-0.26969,0.27519l1.11132,1.09227c0.18063,0.1822 0.18162,0.36535 0.00299,0.54943c-0.1844,0.18283 -0.36746,0.18472 -0.54921,0.00565l-1.11302,-1.09039l-0.54621,0.55603c-0.17982,0.18 -0.36347,0.18095 -0.55097,0.00094c-0.18407,-0.18095 -0.18849,-0.36189 -0.01326,-0.54189l1.64548,-1.67469c0.1821,-0.18283 0.36688,-0.18534 0.55435,-0.00754zM342.51953,304.82603l-1.43531,1.35332c-0.18472,0.18095 -0.18849,0.36566 -0.01225,0.55415c0.18,0.18943 0.36472,0.19508 0.5532,0.01696l0.42409,-0.40242l1.34296,1.42118c0.17246,0.18283 0.35341,0.18472 0.54189,0.0066c0.18566,-0.18 0.19131,-0.36378 0.01885,-0.55132l-1.34013,-1.41081l0.42221,-0.39959c0.18754,-0.18472 0.19037,-0.3732 0.00848,-0.56451c-0.17152,-0.18 -0.34681,-0.18754 -0.52399,-0.02356zM345.42974,305.24635c0.04524,-0.04618 0.10178,-0.07916 0.16964,-0.0999c0.0666,-0.02011 0.13414,-0.02073 0.20262,-0.00188c0.0688,0.01885 0.12723,0.05278 0.17718,0.10272c0.04524,0.04524 0.07822,0.10178 0.09801,0.16964c0.01979,0.06785 0.01979,0.13571 0.00094,0.20262c-0.01885,0.06691 -0.05183,0.1244 -0.0999,0.17341c-0.04712,0.04712 -0.10461,0.08042 -0.17246,0.0999c-0.06785,0.01979 -0.13571,0.01979 -0.20356,0c-0.06691,-0.01885 -0.1244,-0.05183 -0.17058,-0.09801c-0.04901,-0.04901 -0.08388,-0.10744 -0.10272,-0.17529c-0.01979,-0.06785 -0.01979,-0.13477 0,-0.20262c0.01979,-0.06691 0.05372,-0.12346 0.10084,-0.17058zM209.7709,306.96439l-1.01015,-0.92358c-0.19162,-0.17246 -0.37399,-0.16587 -0.54712,0.02168l-1.58181,1.73029c-0.17302,0.18974 -0.16367,0.37226 0.02806,0.54755c0.19412,0.17718 0.37819,0.16964 0.5522,-0.02356l1.31079,-1.43437l0.63449,0.57959c0.14978,0.13759 0.18142,0.25257 0.09491,0.34776c-0.08411,0.09707 -0.20117,0.07445 -0.35116,-0.06691l-0.20475,-0.18377c-0.19303,-0.17906 -0.37824,-0.17058 -0.55564,0.02356c-0.08531,0.09519 -0.12652,0.23938 -0.12364,0.43069l-0.07694,1.23929c0.00685,0.17812 0.05821,0.311 0.15407,0.3977l0.00719,0.0066c0.18813,0.17246 0.37105,0.16492 0.54876,-0.02262c0.08432,-0.09236 0.12346,-0.19288 0.11741,-0.30158l-0.02557,-0.68326c0.14937,0.12817 0.32272,0.15644 0.52006,0.08576c0.19733,-0.06974 0.38689,-0.20451 0.56867,-0.40336c0.17203,-0.18566 0.2518,-0.41749 0.23931,-0.69551c-0.01249,-0.27707 -0.1122,-0.50137 -0.29913,-0.67195zM340.48955,307.2622c0.17246,0.19508 0.16492,0.37603 -0.02168,0.54189l-0.89153,0.78221c-0.19508,0.17623 -0.24974,0.31383 -0.16587,0.41278c0.08388,0.09047 0.2243,0.04806 0.42032,-0.12723l0.28744,-0.25257c0.58996,-0.51645 1.10358,-0.52964 1.53898,-0.03958c0.42221,0.47875 0.33927,0.97918 -0.24786,1.50128l-0.87928,0.77373c-0.19414,0.16964 -0.37509,0.15927 -0.54284,-0.03016c-0.16964,-0.19508 -0.15739,-0.37509 0.03581,-0.54189l0.87551,-0.78127c0.19697,-0.17529 0.25163,-0.31194 0.16398,-0.4109c-0.08765,-0.09895 -0.23089,-0.06032 -0.42975,0.11686l-0.2865,0.25257c-0.58713,0.51456 -1.09227,0.53153 -1.51636,0.05089l-0.00848,-0.00942c-0.42503,-0.48252 -0.34493,-0.98201 0.24032,-1.4994l0.87834,-0.77467c0.19508,-0.16869 0.37791,-0.15739 0.54943,0.03487zM212.27856,309.15553c0.20078,0.16964 0.35248,0.38639 0.4551,0.64933c0.10261,0.26294 0.12711,0.53624 0.0735,0.81803c-0.05361,0.2821 -0.16795,0.5265 -0.34302,0.73321c-0.17402,0.20608 -0.39332,0.35938 -0.65792,0.4599c-0.2646,0.0999 -0.536,0.12252 -0.81421,0.06691c-0.2782,-0.0556 -0.52079,-0.17058 -0.72777,-0.34587c-0.20574,-0.17435 -0.35882,-0.39393 -0.45924,-0.65781c-0.10042,-0.26482 -0.12307,-0.53624 -0.06793,-0.81331c0.05514,-0.2777 0.16972,-0.51959 0.34374,-0.72567c0.17507,-0.20639 0.39631,-0.36095 0.66371,-0.46179c0.2674,-0.10178 0.53974,-0.12252 0.81699,-0.06503c0.27726,0.0578 0.51627,0.17184 0.71705,0.3421zM211.78067,309.75114c-0.10163,-0.08576 -0.22135,-0.14325 -0.35914,-0.17246c-0.13779,-0.02922 -0.27369,-0.01885 -0.40771,0.0311c-0.13401,0.05089 -0.24504,0.12817 -0.3331,0.23184c-0.08806,0.1043 -0.14559,0.22587 -0.17259,0.36472c-0.027,0.13854 -0.01542,0.2733 0.03475,0.40524c0.05017,0.13194 0.1273,0.24126 0.23141,0.32985c0.10287,0.0867 0.22372,0.14419 0.36256,0.17246c0.13885,0.02827 0.27413,0.01696 0.40586,-0.03298c0.13172,-0.04995 0.24162,-0.12723 0.32967,-0.23089c0.08806,-0.10461 0.1458,-0.22712 0.17323,-0.36755c0.02743,-0.14011 0.01492,-0.27613 -0.03754,-0.40807c-0.05245,-0.131 -0.12825,-0.23938 -0.2274,-0.32325zM337.24101,313.52462c0.0688,-0.01319 0.12911,-0.04147 0.18095,-0.08293l1.8104,-1.47584c0.04995,-0.04052 0.08859,-0.09424 0.11592,-0.15927c0.02733,-0.06503 0.03487,-0.13288 0.02262,-0.20356c-0.01225,-0.07068 -0.03958,-0.13194 -0.08293,-0.18472c-0.04335,-0.05278 -0.46273,-0.25822 -1.25814,-0.61635c-0.79541,-0.35812 -1.22515,-0.55038 -1.29112,-0.57676c-0.06503,-0.02639 -0.13288,-0.03298 -0.20262,-0.02168c-0.06974,0.01225 -0.131,0.03958 -0.18377,0.08293c-0.05183,0.04241 -0.09047,0.09613 -0.11686,0.16304c-0.02639,0.06597 -0.03393,0.13382 -0.02073,0.20356c0.01225,0.06974 0.11403,0.5287 0.30629,1.37877c0.19225,0.84913 0.31006,1.30055 0.35247,1.35332c0.04335,0.05278 0.09801,0.0933 0.16492,0.11969c0.06597,0.02639 0.13382,0.03298 0.20262,0.01979zM214.57432,311.17044c-0.01041,-0.08859 -0.0665,-0.17435 -0.16825,-0.25728c-0.20364,-0.15927 -0.38475,-0.13665 -0.54332,0.06691l-1.43612,1.84433c-0.16184,0.20545 -0.13917,0.38828 0.06804,0.54755c0.20464,0.15739 0.38688,0.13382 0.54674,-0.0688l0.84072,-1.07908c0.04536,0.36472 0.0736,0.59373 0.08472,0.68797c0.01113,0.0933 0.066,0.17906 0.16462,0.2554c0.10118,0.07916 0.19726,0.11215 0.28824,0.0999c0.09098,-0.01257 0.32185,-0.04429 0.69262,-0.09519l-0.84521,1.08567c-0.15673,0.20922 -0.1344,0.39299 0.06697,0.55226c0.20948,0.15896 0.39401,0.13602 0.55357,-0.0688l1.43419,-1.84621c0.15629,-0.20356 0.13312,-0.38451 -0.06953,-0.54472c-0.10118,-0.07822 -0.19808,-0.11121 -0.2907,-0.09801c-0.09262,0.01319 -0.50343,0.06503 -1.23241,0.1555c-0.09285,-0.73603 -0.14448,-1.14882 -0.1549,-1.23741zM337.13545,311.24677l1.10829,0.51268l-0.83028,0.6776zM332.64385,313.17121l1.57856,-1.18274c0.19508,-0.14231 0.36849,-0.11498 0.51928,0.08199c0.15927,0.21205 0.13477,0.39865 -0.07257,0.56074l-1.23835,0.933l0.23089,0.30723l1.24494,-0.93771c0.20733,-0.15173 0.38828,-0.12534 0.54378,0.07822c0.15362,0.20922 0.12911,0.39111 -0.07445,0.54472l-1.244,0.93866l0.46839,0.62294c0.15267,0.20451 0.12534,0.38639 -0.08011,0.54472c-0.20545,0.1555 -0.38545,0.13288 -0.53813,-0.06691l-1.41175,-1.87543c-0.15362,-0.20733 -0.12911,-0.39016 0.07351,-0.54943zM219.89551,314.98161c0.21572,0.14796 0.25106,0.32891 0.10583,0.54472l-1.30875,1.93669c-0.14476,0.2111 -0.3257,0.24597 -0.54284,0.10367c-0.21313,-0.14608 -0.24799,-0.32514 -0.10461,-0.53718l1.30677,-1.93857c0.14523,-0.21487 0.32636,-0.25163 0.54359,-0.10932zM221.51196,316.06917c0.10499,0.07068 0.16756,0.15173 0.18783,0.24409c0.01932,0.0867 -0.00547,0.18189 -0.07445,0.28461l-0.00952,0.01414c-0.07718,0.11403 -0.20649,0.18283 -0.38809,0.20451l-1.02847,0.24974l0.15936,1.04421c0.04222,0.18095 0.03025,0.32042 -0.036,0.41938c-0.00452,0.00628 -0.01018,0.01319 -0.01696,0.02073l-0.01772,0.02639c-0.06446,0.09519 -0.13967,0.14985 -0.22571,0.16492c-0.0933,0.01319 -0.19037,-0.01414 -0.2913,-0.08199l-0.0081,-0.00565c-0.11036,-0.07445 -0.17435,-0.15833 -0.19188,-0.25163c-0.01753,-0.09299 -0.04605,-0.33739 -0.08557,-0.73321c-0.03958,-0.39488 -0.06512,-0.64368 -0.07652,-0.74452c-0.01137,-0.10053 0.0197,-0.20828 0.09321,-0.32325c0.07078,-0.10461 0.15729,-0.17246 0.25936,-0.20356c0.10216,-0.0311 0.34757,-0.10367 0.73632,-0.21864c0.38866,-0.11498 0.62794,-0.18 0.71785,-0.19602c0.08991,-0.01602 0.18867,0.01319 0.29639,0.08576zM327.99581,316.39147l-0.98012,0.63708c-0.21676,0.14325 -0.25445,0.32325 -0.11403,0.53907l1.27416,1.95742c0.14325,0.21864 0.32231,0.25728 0.53907,0.11403l1.01405,-0.66064c0.8463,-0.55415 0.98766,-1.26568 0.42503,-2.13271c-0.5664,-0.86986 -1.28547,-1.02065 -2.15816,-0.45425zM222.97602,317.48846c0.13269,-0.2177 0.08991,-0.3977 -0.12836,-0.53813c-0.21779,-0.13854 -0.39525,-0.09895 -0.53238,0.11969l-1.25616,1.97438c-0.13769,0.21676 -0.09867,0.3977 0.11696,0.54189c0.22034,0.13477 0.40119,0.09424 0.54246,-0.12157zM328.61687,318.77016l-0.8463,-1.30055l0.6531,-0.42503c0.4354,-0.28084 0.7907,-0.20639 1.06683,0.2243c0.29027,0.43823 0.21676,0.79729 -0.21864,1.07437zM224.1926,317.77778l1.68873,1.01876c0.20573,0.12723 0.24541,0.29781 0.11903,0.51174c-0.13618,0.22712 -0.31826,0.27519 -0.54623,0.14419l-0.49901,-0.29969l-0.99888,1.66904c-0.13392,0.21676 -0.31232,0.26011 -0.5353,0.131c-0.22279,-0.13382 -0.26935,-0.30912 -0.13995,-0.52493l1.00811,-1.67469l-0.50109,-0.30063c-0.2227,-0.13382 -0.26689,-0.31289 -0.13241,-0.53718c0.1342,-0.22053 0.31317,-0.26576 0.53699,-0.13759zM324.04893,318.8399c0.12629,-0.0622 0.25069,-0.07445 0.37226,-0.03581l1.76516,0.67855l-0.67101,-1.12243c-0.11026,-0.1932 -0.07351,-0.34681 0.10932,-0.46179c0.25351,-0.14608 0.44011,-0.12157 0.5598,0.07351l1.24589,2.07805c0.11215,0.19131 0.04241,0.36472 -0.20922,0.51928c-0.11498,0.0666 -0.23592,0.07634 -0.36283,0.02922l-1.76611,-0.67195l0.67006,1.12054c0.11309,0.1932 0.07445,0.34776 -0.11686,0.46367c-0.25257,0.15079 -0.43823,0.12817 -0.55697,-0.06691l-1.24683,-2.08559c-0.11498,-0.19225 -0.04618,-0.36566 0.20733,-0.51833zM228.91566,320.50516l-0.68316,-0.3798l-0.00424,-0.00188c-0.90529,-0.49949 -1.60853,-0.29592 -2.10981,0.61258c-0.50052,0.91038 -0.29611,1.61626 0.61352,2.11857l0.68213,0.37603c0.22533,0.12252 0.40072,0.07068 0.52625,-0.15644c0.12157,-0.22053 0.06983,-0.39582 -0.15522,-0.52587l-0.67789,-0.37414c-0.45318,-0.25383 -0.55506,-0.60661 -0.30563,-1.05834c0.25257,-0.45802 0.60438,-0.55886 1.05533,-0.3044l0.68128,0.3732c0.22656,0.12629 0.40411,0.07539 0.53256,-0.15456c0.12101,-0.22241 0.06927,-0.39676 -0.15512,-0.52493zM321.87193,323.56051c0.06974,0 0.13382,-0.01602 0.19225,-0.04806l2.04883,-1.12054c0.05749,-0.0311 0.10461,-0.07634 0.14419,-0.13477c0.03864,-0.05937 0.05843,-0.12534 0.05937,-0.19697c0,-0.07068 -0.01602,-0.13665 -0.04806,-0.19697c-0.03298,-0.05937 -0.40807,-0.33833 -1.12431,-0.83499c-0.71719,-0.4976 -1.10547,-0.76431 -1.16484,-0.802c-0.05937,-0.0377 -0.1244,-0.05749 -0.19508,-0.05843c-0.07068,-0.00094 -0.13665,0.01508 -0.19602,0.04712c-0.05843,0.03204 -0.10681,0.07854 -0.14513,0.13948c-0.0377,0.06032 -0.05749,0.12534 -0.05749,0.19602c0,0.07068 0.01696,0.54095 0.04995,1.41175c0.03393,0.86986 0.06691,1.33542 0.0999,1.39573c0.03298,0.05937 0.07916,0.10838 0.14042,0.14608c0.06032,0.03864 0.12534,0.05749 0.19602,0.05655zM230.3227,321.2412c0.2325,0.11875 0.29027,0.29404 0.17312,0.52587l-1.05655,2.08559c-0.11714,0.22807 -0.29234,0.28461 -0.52559,0.17058c-0.22957,-0.1178 -0.28659,-0.29121 -0.17086,-0.52022l1.05429,-2.08559c0.11714,-0.23184 0.29234,-0.29121 0.52559,-0.17623zM322.18293,321.30246l0.99614,0.70682l-0.9396,0.51362zM232.06233,322.11765c0.23042,0.11592 0.28735,0.29121 0.17086,0.52493l-1.05759,2.08747c-0.11714,0.23184 -0.29083,0.28932 -0.52116,0.17341l-0.00443,-0.00283c-0.23174,-0.11686 -0.28914,-0.28932 -0.17199,-0.51739l0.35473,-0.70211l-0.51174,-0.25634c-0.23759,-0.11969 -0.29969,-0.29592 -0.18613,-0.52776c0.1179,-0.23278 0.29668,-0.28838 0.53643,-0.16492l0.514,0.25163l0.3503,-0.69363c0.1179,-0.23278 0.29347,-0.29121 0.52672,-0.17246zM235.28024,323.63873l-1.78938,-0.82933c-0.23649,-0.10367 -0.40945,-0.03864 -0.5189,0.19508l-0.98172,2.13271c-0.10376,0.22901 -0.03845,0.3977 0.19593,0.50514l1.7694,0.8152c0.23429,0.10461 0.40477,0.04052 0.51136,-0.19131c0.10932,-0.23655 0.04561,-0.4109 -0.19112,-0.5221l-1.40657,-0.64745l0.64877,-1.40893l1.40883,0.64839c0.24088,0.10649 0.41665,0.03864 0.52738,-0.20168c0.10235,-0.22618 0.04439,-0.39111 -0.17397,-0.49572zM314.83012,323.58407c0.23938,-0.10367 0.41278,-0.04335 0.51833,0.18189l0.81708,1.77553l1.4061,-0.64839c0.23749,-0.10838 0.41184,-0.04335 0.52116,0.1932c0.10649,0.23184 0.04429,0.40242 -0.1866,0.51268l-1.76893,0.81708c-0.23466,0.10838 -0.40524,0.04806 -0.51174,-0.18l-0.98389,-2.13082c-0.10649,-0.23466 -0.04429,-0.40901 0.18849,-0.52116zM312.08672,325.17206c-0.09801,-0.23184 -0.26765,-0.29781 -0.50703,-0.19697c-0.23655,0.10272 -0.30629,0.27236 -0.20922,0.50985l0.45331,1.0819c0.4043,0.96222 1.02536,1.26474 1.86506,0.90661c0.83687,-0.34964 1.05646,-1.00368 0.65687,-1.96119l-0.45142,-1.08096c-0.10053,-0.23561 -0.2711,-0.3066 -0.51174,-0.21299c-0.23655,0.10178 -0.30723,0.2733 -0.21016,0.51268l0.45142,1.08002c0.20262,0.47875 0.1244,0.79446 -0.23372,0.94808c-0.36189,0.14985 -0.64462,-0.01414 -0.84818,-0.49289zM236.76277,324.28995c0.126,0.06503 0.2095,0.15833 0.25059,0.27896l0.50373,1.82171l0.50335,-1.20631c0.0901,-0.20356 0.2357,-0.26576 0.43681,-0.18754c0.26784,0.11686 0.35916,0.28179 0.27406,0.49477l-0.93036,2.23638c-0.08717,0.20451 -0.26765,0.25163 -0.54161,0.14136c-0.12214,-0.05278 -0.20196,-0.14419 -0.23919,-0.27425l-0.51014,-1.81982l-0.50241,1.20536c-0.08774,0.20545 -0.23532,0.26671 -0.44266,0.18189c-0.27117,-0.11309 -0.36346,-0.2755 -0.27688,-0.48723l0.93545,-2.24297c0.08623,-0.20733 0.26595,-0.25445 0.53926,-0.14231zM233.8748,324.28146c-0.23287,-0.10367 -0.40439,-0.03864 -0.51447,0.19697c-0.108,0.23466 -0.04439,0.40524 0.19075,0.51174l0.70993,0.32702c0.23448,0.10744 0.40816,0.04429 0.52126,-0.18943c0.10499,-0.23561 0.03986,-0.40901 -0.19536,-0.51833zM308.27178,326.24925l1.8481,-0.68891c0.22712,-0.08199 0.38545,-0.00754 0.47498,0.2243c0.09299,0.24754 0.01728,0.42001 -0.22712,0.51739l-1.45228,0.54566l0.13571,0.36001l1.45888,-0.54849c0.24126,-0.0867 0.40713,-0.01131 0.49949,0.22901c0.08859,0.24409 0.01319,0.4109 -0.22524,0.50043l-1.45793,0.55132l0.27425,0.7285c0.08859,0.23938 0.01131,0.40619 -0.23089,0.50043c-0.24126,0.0911 -0.40713,0.01916 -0.4976,-0.21582l-0.82557,-2.19679c-0.08953,-0.2422 -0.01414,-0.4109 0.22524,-0.50703zM244.54834,327.23503l-1.86487,-0.64273c-0.24578,-0.07916 -0.41118,0.00377 -0.49619,0.24786c-0.08444,0.24692 -0.00377,0.41278 0.24201,0.49666l0.55292,0.18849l-0.63435,1.84998c-0.08136,0.23812 0.00085,0.39896 0.24663,0.48252c0.24531,0.08105 0.41071,0.00094 0.49619,-0.23938l0.62662,-1.8415l0.55066,0.18754c0.2504,0.08105 0.41844,-0.00471 0.50392,-0.25445c0.07879,-0.23561 0.00424,-0.39393 -0.22354,-0.47498zM306.2286,326.9702l-1.29772,0.43446c-0.24409,0.08388 -0.32702,0.24692 -0.24692,0.48912l0.74452,2.22318c0.08199,0.24315 0.24503,0.32325 0.49195,0.24032c0.2488,-0.08293 0.33173,-0.24786 0.24786,-0.49383l-0.61729,-1.84244l0.8152,-0.27236c0.19225,-0.06503 0.30817,-0.03581 0.34964,0.08576c0.04335,0.11969 -0.03298,0.21205 -0.22901,0.27425l-0.26011,0.08953c-0.25069,0.08199 -0.33362,0.24786 -0.24974,0.49666c0.04241,0.12157 0.14796,0.22712 0.31666,0.3176l1.04609,0.66912c0.15833,0.08011 0.29969,0.0999 0.42315,0.05843l0.00848,-0.00283c0.2422,-0.08105 0.32419,-0.24409 0.24692,-0.491c-0.03958,-0.11875 -0.10838,-0.20168 -0.20639,-0.2488l-0.60975,-0.30912c0.18377,-0.0688 0.29309,-0.20639 0.32796,-0.41278c0.03393,-0.20733 0.00848,-0.43823 -0.07728,-0.69363c-0.07916,-0.24032 -0.24315,-0.42315 -0.491,-0.54661c-0.2488,-0.1244 -0.49383,-0.14608 -0.73321,-0.06503zM247.1238,328.03703c0.25191,0.07539 0.47753,0.21299 0.67676,0.41372c0.19923,0.20074 0.3306,0.44011 0.39412,0.72096c0.06352,0.2799 0.05645,0.54943 -0.02139,0.80954c-0.07737,0.25728 -0.21723,0.48535 -0.41966,0.68326c-0.20243,0.19791 -0.44237,0.32702 -0.71964,0.38734c-0.27726,0.05937 -0.54576,0.05089 -0.8054,-0.02733c-0.25813,-0.07728 -0.4861,-0.21676 -0.68382,-0.41938c-0.19782,-0.20262 -0.32683,-0.442 -0.38724,-0.71813c-0.06032,-0.27707 -0.05183,-0.54378 0.02554,-0.802c0.07784,-0.26011 0.21911,-0.48912 0.42381,-0.68891c0.20469,-0.19979 0.4457,-0.32859 0.72303,-0.38639c0.27736,-0.05749 0.54199,-0.04806 0.7939,0.02733zM302.28841,328.21138c0.25238,-0.07445 0.51664,-0.08105 0.79249,-0.02168c0.27644,0.05969 0.51771,0.18943 0.72378,0.38922c0.20545,0.20074 0.34681,0.43069 0.42221,0.6908c0.07634,0.25917 0.08293,0.52587 0.02073,0.802c-0.0622,0.27613 -0.1932,0.51551 -0.39299,0.71624c-0.19979,0.20168 -0.42975,0.34022 -0.68986,0.41655c-0.25822,0.07634 -0.52587,0.08293 -0.802,0.02073c-0.27604,-0.0622 -0.51475,-0.19225 -0.71596,-0.39205c-0.20121,-0.19885 -0.33965,-0.42786 -0.41542,-0.68609c-0.07615,-0.26011 -0.08274,-0.52964 -0.01979,-0.8086c0.06295,-0.27896 0.19508,-0.51833 0.39629,-0.71719c0.2013,-0.19979 0.42814,-0.33645 0.68053,-0.40996zM246.90553,328.78249c-0.12751,-0.03864 -0.2603,-0.04335 -0.39836,-0.01508c-0.13803,0.02827 -0.25841,0.09204 -0.36114,0.19131c-0.10272,0.0999 -0.17369,0.21487 -0.21289,0.34587c-0.03911,0.131 -0.04335,0.26482 -0.01263,0.40242c0.03063,0.13854 0.09528,0.25822 0.19395,0.35812c0.09858,0.10084 0.21318,0.17058 0.3438,0.21016c0.12911,0.03864 0.26284,0.04335 0.40138,0.01319c0.13854,-0.02922 0.25813,-0.0933 0.35888,-0.19225c0.10071,-0.09864 0.17064,-0.2133 0.20978,-0.34399c0.03911,-0.13005 0.04316,-0.26576 0.01225,-0.40524c-0.03101,-0.13948 -0.09679,-0.25917 -0.19744,-0.35906c-0.10065,-0.0999 -0.21318,-0.16775 -0.33758,-0.20545zM302.51129,328.95495c-0.1277,0.0377 -0.24183,0.10555 -0.34229,0.20451c-0.10046,0.09895 -0.16662,0.2177 -0.19847,0.35812c-0.03195,0.13948 -0.02865,0.27425 0.00961,0.40524c0.03836,0.131 0.10791,0.24597 0.20884,0.34493c0.10084,0.09895 0.22006,0.16398 0.35765,0.19414c0.1375,0.0311 0.2717,0.02733 0.40232,-0.01131c0.13005,-0.0377 0.24409,-0.10649 0.34399,-0.20733c0.0999,-0.0999 0.16587,-0.21864 0.19602,-0.35624c0.0311,-0.13759 0.02733,-0.27236 -0.01131,-0.40242c-0.0377,-0.131 -0.10838,-0.24692 -0.21016,-0.34681c-0.10178,-0.10084 -0.22241,-0.16492 -0.36095,-0.19414c-0.13891,-0.02827 -0.27057,-0.0245 -0.39525,0.01131zM299.88108,328.94082c-0.06889,-0.01791 -0.13486,-0.01979 -0.19782,-0.00377c-0.06456,0.01602 -0.12261,0.04806 -0.17425,0.09613c-0.05155,0.04806 -0.0867,0.10649 -0.10536,0.17623c-0.01875,0.0688 -0.15192,0.68232 -0.39959,1.84056c-0.75865,-0.90661 -1.16248,-1.38631 -1.21149,-1.43814c-0.04901,-0.05183 -0.108,-0.08765 -0.17689,-0.10555c-0.06889,-0.01791 -0.13477,-0.01885 -0.19782,-0.00283c-0.06456,0.01602 -0.12261,0.04806 -0.17416,0.09613c-0.05164,0.04806 -0.0868,0.10649 -0.10546,0.17623c-0.01866,0.0688 -0.01998,0.13571 -0.00386,0.19979c0.01652,0.0666 0.30767,0.43132 0.87344,1.09416c0.56574,0.66347 0.87259,1.02159 0.92066,1.07248c0.04797,0.05183 0.10649,0.0867 0.17539,0.10461c0.06889,0.01791 0.13562,0.01885 0.20017,0.00283c0.06616,-0.01634 0.12503,-0.04869 0.17661,-0.09707c0.05158,-0.04775 0.08642,-0.10587 0.10452,-0.17435c0.01809,-0.06785 0.12186,-0.52776 0.31128,-1.38065c0.18933,-0.85195 0.27575,-1.31091 0.25926,-1.37688c-0.01612,-0.06503 -0.04872,-0.12346 -0.09773,-0.17529c-0.04901,-0.05183 -0.108,-0.0867 -0.17689,-0.10461zM253.73322,329.76638l-1.14043,-0.2554c-0.2537,-0.0556 -0.40892,0.04241 -0.46537,0.29498l-0.51136,2.27784c-0.05721,0.2554 0.041,0.4109 0.29479,0.46556l1.18077,0.26482c0.98747,0.21864 1.59524,-0.17623 1.82322,-1.18463c0.22722,-1.01217 -0.16672,-1.63322 -1.18161,-1.86318zM294.26563,333.3787c-0.06515,0.01382 -0.13131,0.01068 -0.19847,-0.00942c-0.06719,-0.02073 -0.12421,-0.05749 -0.17114,-0.11121c-0.04684,-0.05466 -0.07728,-0.11498 -0.09113,-0.18189c-0.01385,-0.06597 0.08972,-0.52116 0.31072,-1.36369c0.221,-0.84253 0.34191,-1.29772 0.36274,-1.36463c0.02083,-0.06785 0.05824,-0.1244 0.11234,-0.17152c0.0541,-0.04712 0.11375,-0.07728 0.17887,-0.09047c0.06672,-0.01414 0.13382,-0.01037 0.2014,0.01131c0.06748,0.02136 0.12418,0.05874 0.17011,0.11215c0.04599,0.05372 0.33946,0.42315 0.88041,1.10641c0.54105,0.6842 0.8185,1.06023 0.83244,1.12714c0.01385,0.06597 0.01008,0.13382 -0.0114,0.20262c-0.02142,0.06785 -0.05934,0.1244 -0.11375,0.16964c-0.05438,0.04524 -0.11337,0.07445 -0.17699,0.08859zM252.46453,331.8727l0.33965,-1.51354l0.76025,0.17058c0.50495,0.11498 0.69975,0.42221 0.58468,0.91981c-0.11205,0.51362 -0.41929,0.71247 -0.92198,0.59467zM257.56833,330.54671c0.2587,0.04712 0.49817,0.15927 0.71832,0.33645c0.22015,0.17718 0.37725,0.40147 0.47131,0.67289c0.09405,0.27048 0.11677,0.54001 0.06814,0.80672c-0.04835,0.26482 -0.16219,0.50703 -0.34163,0.72567c-0.17934,0.21959 -0.40345,0.37414 -0.67242,0.46462c-0.26897,0.08953 -0.53681,0.11121 -0.80342,0.0622c-0.2651,-0.04806 -0.50712,-0.1621 -0.72604,-0.3421c-0.21893,-0.17906 -0.37367,-0.40242 -0.46414,-0.67101c-0.09047,-0.26765 -0.11158,-0.53436 -0.06324,-0.80012c0.04863,-0.26671 0.1637,-0.50985 0.34512,-0.73132c0.18132,-0.22053 0.40675,-0.37509 0.676,-0.46273c0.26935,-0.08859 0.53332,-0.10838 0.79201,-0.06126zM290.65181,331.24128c-0.04288,-0.24409 -0.19376,-0.34776 -0.45255,-0.311c-0.2537,0.04806 -0.35991,0.19885 -0.31854,0.45331l0.39045,2.3146c0.04354,0.24786 0.19244,0.35058 0.44699,0.30723l1.92076,-0.32325c0.25238,-0.04618 0.35737,-0.19508 0.31496,-0.44577c-0.04345,-0.25822 -0.19414,-0.36566 -0.45218,-0.32419l-1.52701,0.25728zM262.175,331.47971c-0.22722,-0.16775 -0.47093,-0.26953 -0.73132,-0.30629c-0.26039,-0.03675 -0.52342,-0.00565 -0.7889,0.09236c-0.26558,0.09895 -0.4845,0.26199 -0.65678,0.49006c-0.17237,0.22807 -0.27736,0.47687 -0.31524,0.74546c-0.0376,0.26671 -0.00575,0.53247 0.09556,0.79635c0.10122,0.26388 0.26492,0.48158 0.49091,0.65216c0.22599,0.17058 0.47234,0.27425 0.73914,0.31194c0.2685,0.0377 0.5352,0.00565 0.80031,-0.09519c0.2651,-0.10084 0.4828,-0.26482 0.6532,-0.491c0.1703,-0.22524 0.27434,-0.47216 0.31194,-0.73886c0.03779,-0.26859 0.00424,-0.53624 -0.10075,-0.80389c-0.10499,-0.26671 -0.27095,-0.48441 -0.49807,-0.6531zM286.69805,331.4194l1.9561,-0.25163c0.24026,-0.02827 0.37738,0.08042 0.41137,0.32608c0.03449,0.26199 -0.07832,0.41278 -0.33843,0.45236l-1.53776,0.20168l0.05014,0.38168l1.54501,-0.20262c0.25474,-0.03016 0.39959,0.08105 0.43465,0.3355c0.03063,0.25822 -0.08039,0.40336 -0.33305,0.43634l-1.54473,0.20545l0.10159,0.77279c0.03157,0.25351 -0.08114,0.3977 -0.33824,0.4354c-0.25587,0.03298 -0.401,-0.07445 -0.43549,-0.32325l-0.30591,-2.32779c-0.03204,-0.25634 0.07954,-0.40336 0.33475,-0.442zM257.43375,331.31196c-0.13093,-0.02387 -0.26347,-0.01445 -0.39761,0.02827c-0.13411,0.04335 -0.24673,0.12063 -0.33777,0.23089c-0.09113,0.11026 -0.1489,0.23278 -0.17341,0.3666c-0.02441,0.13477 -0.01385,0.26859 0.03195,0.40242c0.04571,0.13288 0.12308,0.24503 0.23221,0.33362c0.10913,0.08953 0.2308,0.14608 0.36491,0.17058c0.1326,0.0245 0.26605,0.01414 0.40044,-0.03016c0.13439,-0.04524 0.24626,-0.12252 0.33541,-0.23089c0.08925,-0.10932 0.14608,-0.23089 0.17058,-0.36566c0.02444,-0.13382 0.01354,-0.26859 -0.0327,-0.4043c-0.04618,-0.13571 -0.12487,-0.24692 -0.23589,-0.33456c-0.11102,-0.08859 -0.23033,-0.14419 -0.35812,-0.16681zM295.76993,332.26475l-0.748,-0.96599l-0.30092,1.18463zM264.1835,331.52778l1.36143,0.13854c0.25191,0.02545 0.46565,0.14608 0.64113,0.36095c0.17548,0.21582 0.24955,0.44954 0.22232,0.70116c-0.02733,0.26765 -0.09914,0.48912 -0.21563,0.66347c-0.11648,0.17341 -0.27274,0.25445 -0.46876,0.24032l0.42786,0.53341c0.06974,0.08388 0.0983,0.18754 0.08567,0.31194c-0.03101,0.25634 -0.17331,0.37132 -0.42682,0.34587l-0.00971,-0.00094c-0.12921,-0.01319 -0.24955,-0.08953 -0.36104,-0.22807l-0.67723,-1.04044c-0.11667,-0.15173 -0.16926,-0.29215 -0.15795,-0.41938c0.02667,-0.26199 0.17077,-0.37886 0.4322,-0.35058l0.27396,0.02545c0.20479,0.0245 0.31204,-0.02733 0.32184,-0.1555c0.00371,-0.03644 -0.00135,-0.06848 -0.01517,-0.09613c-0.03456,-0.06911 -0.12396,-0.11121 -0.26821,-0.12629l-0.85506,-0.0867l-0.19687,1.93292c-0.02469,0.25822 -0.16785,0.37414 -0.42946,0.34776c-0.25841,-0.02639 -0.37461,-0.16712 -0.3486,-0.42221l0.23759,-2.3325c0.02742,-0.25351 0.16964,-0.36755 0.42654,-0.34304zM269.61602,332.76235c0.24955,0.01508 0.38281,-0.10744 0.39968,-0.3666c0.01517,-0.25822 -0.10593,-0.39582 -0.3634,-0.41467l-1.1687,-0.07539c-0.77929,-0.04995 -1.18981,0.24692 -1.23156,0.88777l-0.00085,0.01225c-0.04166,0.63991 0.32702,0.98578 1.10603,1.03855l0.38149,0.0245c0.26576,0.01602 0.39431,0.09047 0.38564,0.22335c-0.00854,0.13131 -0.14407,0.18911 -0.40656,0.17341l-1.17162,-0.0688c-0.25417,-0.01979 -0.39035,0.09895 -0.40882,0.35624c-0.0164,0.25257 0.10404,0.38828 0.36151,0.40619l1.1687,0.07634c0.78419,0.04806 1.19707,-0.24597 1.23854,-0.88305c0.03939,-0.65404 -0.33192,-1.00934 -1.11414,-1.06306l-0.38149,-0.0245c-0.2625,-0.01571 -0.39136,-0.08513 -0.38658,-0.20828c0.01008,-0.13005 0.14645,-0.18754 0.40901,-0.17341zM260.944,331.98768c0.13225,-0.04838 0.26429,-0.06346 0.3961,-0.04524c0.12855,0.01885 0.25012,0.0688 0.36462,0.15267c0.1145,0.08293 0.19753,0.19131 0.24918,0.32514c0.05174,0.13382 0.06804,0.26765 0.04901,0.40242c-0.01904,0.13571 -0.07087,0.25917 -0.15559,0.37226c-0.08472,0.11215 -0.19339,0.19414 -0.3258,0.24409c-0.13251,0.04995 -0.26548,0.06597 -0.39883,0.04712c-0.13505,-0.01885 -0.25888,-0.07068 -0.3715,-0.1555c-0.11271,-0.08482 -0.19461,-0.1932 -0.24569,-0.32514c-0.05108,-0.13194 -0.0671,-0.26482 -0.04806,-0.40053c0.01904,-0.13477 0.07181,-0.25917 0.15833,-0.3732c0.08661,-0.11403 0.19602,-0.19508 0.32825,-0.24409zM278.24308,332.07721l1.36718,-0.05937c0.24974,-0.01131 0.47772,0.07539 0.68382,0.25822c0.20451,0.18283 0.31241,0.40242 0.32363,0.66064l0.00028,0.00754c0.01169,0.26859 -0.07521,0.50326 -0.26077,0.70211c-0.18556,0.19885 -0.41127,0.3044 -0.67723,0.31571l-0.38413,0.02168c-0.25625,0.01131 -0.39092,-0.11498 -0.40392,-0.37697c-0.0114,-0.26294 0.11432,-0.39959 0.37706,-0.40901l0.27481,-0.01414c0.20611,-0.0066 0.30478,-0.07257 0.29592,-0.20074c-0.00556,-0.12817 -0.1097,-0.18754 -0.31241,-0.17906l-0.85864,0.03675l0.08416,1.9414c0.00641,0.12817 -0.02083,0.22618 -0.08171,0.29404c-0.06233,0.06911 -0.15999,0.10649 -0.293,0.11215c-0.25945,0.01131 -0.39478,-0.11121 -0.4059,-0.36755l-0.10169,-2.34193c-0.00942,-0.2554 0.11479,-0.38922 0.37254,-0.40147zM271.20221,332.05176l1.97137,0.0622c0.24164,0.01037 0.35972,0.13948 0.35407,0.38828c-0.00763,0.26482 -0.14297,0.39488 -0.406,0.39205l-0.58176,-0.01696l-0.054,1.94517c-0.01065,0.25445 -0.14504,0.3798 -0.40317,0.37603c-0.25954,-0.00754 -0.38573,-0.13759 -0.37838,-0.38922l0.05918,-1.95365l-0.58412,-0.01696c-0.25964,-0.00754 -0.38564,-0.14231 -0.37801,-0.40336c0.00905,-0.25822 0.14268,-0.38545 0.40081,-0.38357zM276.68025,332.11679l-1.97221,0.00942c-0.25813,0.0066 -0.38705,0.13854 -0.38687,0.39676l0.01649,2.34758c0.00339,0.25163 0.13411,0.37603 0.39224,0.37414l1.9479,-0.01319c0.25643,-0.00565 0.38376,-0.13571 0.38197,-0.39016c-0.00188,-0.26105 -0.13345,-0.39205 -0.39478,-0.39205l-1.54859,0.01131l-0.01084,-1.55123l1.55095,-0.01037c0.26294,-0.00691 0.39349,-0.14262 0.39167,-0.40713c-0.00339,-0.2488 -0.126,-0.3732 -0.36792,-0.37509zM275.68043,333.29482c-0.25483,0.00565 -0.38215,0.13759 -0.38197,0.3977c0.00188,0.25822 0.13185,0.38545 0.38988,0.38168l0.78155,-0.00565c0.25813,-0.00188 0.38866,-0.13194 0.39177,-0.39205c-0.00509,-0.25822 -0.1375,-0.38734 -0.39723,-0.38734zM282.58314,334.58689c-0.02036,-0.25917 -0.15918,-0.37886 -0.41665,-0.36095c-0.25577,0.01885 -0.37593,0.15833 -0.36038,0.41938l0.04231,0.58525c0.01847,0.25634 0.1572,0.37414 0.41627,0.35624l0.00481,-0.00094c0.25587,-0.01791 0.37433,-0.15739 0.35548,-0.41844z" data-paper-data="{&quot;isBaseLogoContainer&quot;:true}"/></g></g></g></svg>